<?xml version="1.0" encoding="UTF-8" standalone="no"?>
<svg width="174px" height="35px" viewBox="0 0 174 35" version="1.1" xmlns="http://www.w3.org/2000/svg" xmlns:xlink="http://www.w3.org/1999/xlink">
    <!-- Generator: sketchtool 3.6.1 (26313) - http://www.bohemiancoding.com/sketch -->
    <title>E8D8AA21-8798-4D7B-894C-5E58493F2378</title>
    <desc>Created with sketchtool.</desc>
    <defs>
        <path id="path-1" d="M0.113766667,34 L21.9481,34 L21.9481,0.255166667 L0.113766667,0.255166667 L0.113766667,34 L0.113766667,34 Z"></path>
        <path id="path-3" d="M0.265133333,23 L21.7901333,23 L21.7901333,0.295766667 L0.265133333,0.295766667 L0.265133333,23 L0.265133333,23 Z"></path>
        <path id="path-5" d="M0.0311666667,23 L21.5561667,23 L21.5561667,0.295766667 L0.0311666667,0.295766667 L0.0311666667,23 L0.0311666667,23 Z"></path>
    </defs>
    <g id="Page-1" stroke="none" stroke-width="1" fill="none" fill-rule="evenodd">
        <g id="customer-logos-color" transform="translate(-1429.000000, -280.000000)">
            <g id="fb" transform="translate(1429.000000, 280.000000)">
                <g id="Group-3" transform="translate(0.000000, 0.056333)" fill="#3B66A6">
                    <path d="M16.2736,0.2811 L16.2736,5.54876667 L13.3576,5.54876667 C13.3576,5.54876667 10.7236,5.17243333 10.7236,7.71243333 L10.7236,11.8514333 L16.2736,11.8514333 L15.6152667,17.5687667 L10.7236,17.5687667 L10.7236,33.5807667 L4.32726667,33.5807667 L4.32726667,17.4957667 L-6.66666662e-05,17.4957667 L-6.66666662e-05,11.8514333 L4.51526667,11.8514333 L4.51526667,7.05376667 C4.51526667,7.05376667 3.95093333,4.4201 6.3026,2.25643333 C8.65426667,0.0931 11.7582667,0.2811 11.7582667,0.2811 L16.2736,0.2811 Z" id="Fill-1"></path>
                </g>
                <path d="M31.3523667,25.0298333 C31.3523667,27.2118333 29.4977,29.2631667 27.2100333,29.2631667 C24.9220333,29.2631667 23.0673667,27.2118333 23.0673667,25.0298333 L23.0673667,20.8911667 C23.0673667,18.7091667 24.9220333,16.6581667 27.2100333,16.6581667 C29.4977,16.6581667 31.3523667,18.7091667 31.3523667,20.8911667 L31.3523667,25.0298333 Z M31.6967,12.0018333 L31.6967,14.8721667 C30.0647,12.7245 27.7823667,11.3901667 25.2570333,11.3901667 C20.2957,11.3901667 16.2737,15.7645 16.2737,22.8898333 C16.2737,29.9685 20.2957,34.3895 25.2570333,34.3895 C27.8063667,34.3895 30.1077,33.0301667 31.7430333,30.8465 L31.7007,33.6371667 L37.8620333,33.6371667 L37.8620333,12.0018333 L31.6967,12.0018333 Z" id="Fill-4" fill="#3B66A6"></path>
                <g id="Group-8" transform="translate(81.666667, 0.389667)">
                    <mask id="mask-2" fill="white">
                        <use xlink:href="#path-1"></use>
                    </mask>
                    <g id="Clip-7"></g>
                    <path d="M6.86943333,20.3605 C6.86943333,18.1785 8.7241,16.1271667 11.0117667,16.1271667 C13.2997667,16.1271667 15.1544333,18.1785 15.1544333,20.3605 L15.1544333,24.4991667 C15.1544333,26.6811667 13.2997667,28.7321667 11.0117667,28.7321667 C8.7241,28.7321667 6.86943333,26.6811667 6.86943333,24.4991667 L6.86943333,20.3605 Z M6.5251,33.3885 L6.5251,30.5181667 C8.1571,32.6658333 10.4394333,34.0001667 12.9647667,34.0001667 C17.9261,34.0001667 21.9481,29.6258333 21.9481,22.5001667 C21.9481,15.4218333 17.9261,11.0005 12.9647667,11.0005 C10.4154333,11.0005 8.1141,12.3601667 6.47876667,14.5435 L6.5211,0.255166667 L0.113766667,0.976166667 L0.113766667,33.2898333 L6.5251,33.3885 Z" id="Fill-6" fill="#3B66A6" mask="url(#mask-2)"></path>
                </g>
                <path d="M51.7838333,29.1424667 C51.7838333,29.1424667 46.8451667,29.4248 46.8451667,23.0281333 L46.8451667,22.6784667 C46.8451667,16.2818 51.7838333,16.5641333 51.7838333,16.5641333 C55.1231667,16.5168 56.2991667,17.6928 56.2991667,17.6928 L57.8511667,13.0364667 C55.1701667,11.0611333 47.0805,10.7318 43.4588333,14.0711333 C40.3251667,16.9608 40.3258333,21.6431333 40.3828333,22.8531333 C40.3258333,24.0631333 40.3251667,28.7458 43.4588333,31.6351333 C47.0805,34.9744667 55.1701667,34.6454667 57.8511667,32.6701333 L56.2991667,28.0138 C56.2991667,28.0138 55.1231667,29.1894667 51.7838333,29.1424667" id="Fill-9" fill="#3B66A6"></path>
                <path d="M65.2353667,20.797 C65.2353667,20.797 64.9060333,15.9996667 69.2333667,15.9996667 C73.5603667,15.9996667 73.2310333,20.797 73.2310333,20.797 L65.2353667,20.797 Z M79.1103667,25.171 C79.1103667,25.171 81.6970333,11.6253333 69.3273667,11.552 C56.9573667,11.4783333 58.7447,23.807 58.7447,23.807 C59.0270333,31.2853333 62.4603667,33.449 68.3397,34.1543333 C74.2187,34.86 78.6870333,32.6023333 78.6870333,32.6023333 L77.3230333,28.2283333 C77.3230333,28.2283333 72.5727,29.6863333 68.8100333,29.357 C65.0473667,29.028 65.3293667,25.171 65.3293667,25.171 L79.1103667,25.171 Z" id="Fill-11" fill="#3B66A6"></path>
                <g id="Group-15" transform="translate(105.333333, 11.389667)">
                    <mask id="mask-4" fill="white">
                        <use xlink:href="#path-3"></use>
                    </mask>
                    <g id="Clip-14"></g>
                    <path d="M15.2231333,13.5257667 C15.2231333,15.7077667 13.3201333,17.7591 10.9724667,17.7591 C8.62513333,17.7591 6.7218,15.7077667 6.7218,13.5257667 L6.7218,9.3871 C6.7218,7.2051 8.62513333,5.1541 10.9724667,5.1541 C13.3201333,5.1541 15.2231333,7.2051 15.2231333,9.3871 L15.2231333,13.5257667 Z M11.0274667,0.295766667 C2.97513333,0.295766667 0.265133333,5.1541 0.265133333,11.6477667 C0.265133333,18.5371 3.75713333,23.0001 11.0274667,23.0001 C16.9714667,23.0001 21.7901333,19.0064333 21.7901333,11.6477667 C21.7901333,5.37843333 18.7151333,0.295766667 11.0274667,0.295766667 L11.0274667,0.295766667 Z" id="Fill-13" fill="#3B66A6" mask="url(#mask-4)"></path>
                </g>
                <g id="Group-18" transform="translate(129.333333, 11.389667)">
                    <mask id="mask-6" fill="white">
                        <use xlink:href="#path-5"></use>
                    </mask>
                    <g id="Clip-17"></g>
                    <path d="M14.9891667,13.5257667 C14.9891667,15.7077667 13.0861667,17.7591 10.7385,17.7591 C8.39116667,17.7591 6.48783333,15.7077667 6.48783333,13.5257667 L6.48783333,9.3871 C6.48783333,7.2051 8.39116667,5.1541 10.7385,5.1541 C13.0861667,5.1541 14.9891667,7.2051 14.9891667,9.3871 L14.9891667,13.5257667 Z M10.7935,0.295766667 C2.74116667,0.295766667 0.0311666667,5.1541 0.0311666667,11.6477667 C0.0311666667,18.5371 3.52316667,23.0001 10.7935,23.0001 C16.7375,23.0001 21.5561667,19.0064333 21.5561667,11.6477667 C21.5561667,5.37843333 18.4811667,0.295766667 10.7935,0.295766667 L10.7935,0.295766667 Z" id="Fill-16" fill="#3B66A6" mask="url(#mask-6)"></path>
                </g>
                <g id="Group-21" transform="translate(153.000000, 0.389667)" fill="#3B66A6">
                    <path d="M20.4567,33.3418667 L13.4207,22.4492 L20.1440333,11.5562 L13.2643667,11.5562 L6.69736667,21.3072 L6.69736667,0.142533333 L0.2347,0.819866667 L0.2347,33.3418667 L6.69736667,33.3418667 L6.69736667,22.2605333 L13.7853667,33.3418667 L20.4567,33.3418667 Z" id="Fill-19"></path>
                </g>
            </g>
        </g>
    </g>
</svg>