<?xml version="1.0" encoding="UTF-8" standalone="no"?>
<svg width="218px" height="60px" viewBox="0 0 218 60" version="1.1" xmlns="http://www.w3.org/2000/svg" xmlns:xlink="http://www.w3.org/1999/xlink">
    <!-- Generator: sketchtool 39.1 (31720) - http://www.bohemiancoding.com/sketch -->
    <title>789A5B8A-07A4-46C3-9E92-EFD44501FE02</title>
    <desc>Created with sketchtool.</desc>
    <defs></defs>
    <g id="Page-1" stroke="none" stroke-width="1" fill="none" fill-rule="evenodd">
        <g id="customer-logos-color" transform="translate(-2993.000000, -55.000000)">
            <g id="fastlane" transform="translate(2993.000000, 55.000000)">
                <g id="Group-2">
                    <path d="" id="Fill-1" fill="#9032E9"></path>
                    <path d="" id="Fill-3" fill="#9032E9"></path>
                    <path d="" id="Fill-5" fill="#9032E9"></path>
                    <path d="" id="Fill-7" fill="#9032E9"></path>
                    <polygon id="Fill-9" fill="#9032E9" points="23.9937921 48.8318911 23.9937921 48.8318911 27.082901 48.8318911"></polygon>
                    <path d="" id="Fill-11" fill="#9032E9"></path>
                    <path d="" id="Fill-13" fill="#9032E9"></path>
                    <path d="" id="Fill-15" fill="#9032E9"></path>
                    <path d="" id="Fill-17" fill="#9032E9"></path>
                    <path d="" id="Fill-19" fill="#9032E9"></path>
                    <path d="" id="Fill-21" fill="#9032E9"></path>
                    <path d="" id="Fill-23" fill="#9032E9"></path>
                    <path d="" id="Fill-25" fill="#9032E9"></path>
                    <path d="M47.1918119,47.940802 C47.0135941,47.7328812 46.8353762,47.5249604 46.6274554,47.3467426 C45.8254752,46.6635743 44.7858713,46.3665446 43.7759703,46.4556535 C43.092802,46.5150594 42.4096337,46.7823861 41.8452772,47.2279307 C41.2809208,47.6437723 40.8947822,48.2081287 40.6571584,48.8021881 L27.082901,48.8021881 L23.9937921,48.8021881 C23.9937921,48.8615941 24.023495,49.0992178 24.023495,49.1586238 C24.023495,49.1883267 24.023495,49.2180297 24.053198,49.2477327 C24.053198,49.3071386 24.053198,49.3665446 24.082901,49.4556535 C24.082901,49.5447624 24.112604,49.6338713 24.112604,49.7526832 L24.112604,50.0794158 L24.112604,50.3764455 C24.112604,50.4952574 24.112604,50.6140693 24.082901,50.7328812 C24.082901,50.8219901 24.082901,50.911099 24.053198,51.0002079 C24.053198,51.1190198 24.023495,51.2378317 23.9937921,51.3566436 C23.9640891,51.4457525 23.9640891,51.5348614 23.9343861,51.6239703 C23.9343861,51.6833762 23.9046832,51.7427822 23.8749802,51.8021881 C23.8749802,51.8615941 23.8452772,51.921 23.8155743,51.950703 C23.7858713,52.0398119 23.7561683,52.1289208 23.7561683,52.2180297 C23.7264653,52.3368416 23.6670594,52.4556535 23.6076535,52.5744653 C23.5779505,52.6635743 23.5482475,52.7229802 23.5185446,52.8120891 C23.4591386,52.930901 23.3997327,53.0794158 23.3403267,53.1982277 C23.3106238,53.2576337 23.2809208,53.3170396 23.2512178,53.3764455 C23.1324059,53.5546634 23.0135941,53.7625842 22.8947822,53.940802 C20.8155743,56.8516931 16.7759703,57.5348614 13.8650792,55.4556535 C10.9541881,53.3764455 10.2710198,49.3368416 12.3502277,46.4259505 L9.91458416,44.7031782 C6.88488119,48.950703 7.89478218,54.891297 12.1423069,57.921 C16.3898317,60.950703 22.3304257,59.940802 25.3601287,55.6932772 C26.1918119,54.5348614 26.7264653,53.1685248 26.9640891,51.8021881 L40.6868614,51.8021881 C40.8056733,52.0695149 40.9541881,52.3368416 41.1621089,52.6041683 C42.4393366,54.2675347 44.8452772,54.5942673 46.5086436,53.2873366 C48.1720099,52.0101089 48.4987426,49.6041683 47.1918119,47.940802" id="Fill-27" fill="#9032E9"></path>
                    <path d="" id="Fill-29" fill="#9032E9"></path>
                    <path d="" id="Fill-31" fill="#9032E9"></path>
                    <path d="" id="Fill-33" fill="#9032E9"></path>
                    <path d="" id="Fill-35" fill="#9032E9"></path>
                    <path d="" id="Fill-37" fill="#86C351"></path>
                    <path d="" id="Fill-39" fill="#86C351"></path>
                    <path d="" id="Fill-41" fill="#86C351"></path>
                    <path d="" id="Fill-43" fill="#86C351"></path>
                    <polygon id="Fill-45" fill="#86C351" points="44.9046832 44.1091188 44.9046832 44.1091188 45.8551782 41.1685248"></polygon>
                    <path d="" id="Fill-47" fill="#86C351"></path>
                    <path d="" id="Fill-49" fill="#86C351"></path>
                    <path d="" id="Fill-51" fill="#86C351"></path>
                    <path d="" id="Fill-53" fill="#86C351"></path>
                    <path d="" id="Fill-55" fill="#86C351"></path>
                    <path d="" id="Fill-57" fill="#86C351"></path>
                    <path d="" id="Fill-59" fill="#86C351"></path>
                    <path d="" id="Fill-61" fill="#86C351"></path>
                    <path d="M56.1324059,24.0596139 C55.4195347,22.0695149 53.2512178,21.0299109 51.2611188,21.7427822 C50.9937921,21.8318911 50.7561683,21.950703 50.5185446,22.0992178 C49.6274554,22.6635743 49.0036931,23.5546634 48.7957723,24.5348614 C48.6472574,25.2180297 48.6769604,25.930901 48.9145842,26.6140693 C49.1522079,27.2675347 49.5383465,27.8318911 50.043297,28.2477327 L45.8551782,41.1685248 L44.9046832,44.1091188 C44.9640891,44.1091188 45.2017129,44.1685248 45.2611188,44.1685248 C45.2908218,44.1685248 45.3205248,44.1685248 45.3502277,44.1982277 C45.4096337,44.1982277 45.4690396,44.2279307 45.5581485,44.2279307 C45.6472574,44.2576337 45.7363663,44.2576337 45.8254752,44.2873366 C45.9442871,44.3170396 46.033396,44.3467426 46.1522079,44.3764455 C46.2413168,44.4061485 46.3304257,44.4358515 46.4195347,44.4655545 C46.5383465,44.4952574 46.6274554,44.5546634 46.7462673,44.5843663 C46.8353762,44.6140693 46.9244851,44.6437723 47.0135941,44.7031782 C47.1324059,44.7625842 47.2215149,44.8219901 47.3106238,44.8516931 C47.3997327,44.881396 47.4888416,44.940802 47.5482475,44.970505 C47.6076535,45.0002079 47.6670594,45.0299109 47.7264653,45.0596139 C47.7858713,45.0893168 47.8155743,45.1190198 47.8749802,45.1487228 C47.9640891,45.2081287 48.023495,45.2378317 48.112604,45.2972376 C48.2017129,45.3863465 48.3205248,45.4457525 48.4096337,45.5348614 C48.4690396,45.5942673 48.5581485,45.6536733 48.6175545,45.6833762 C48.7363663,45.7724851 48.8254752,45.891297 48.9145842,45.9804059 C48.9739901,46.0398119 49.033396,46.0695149 49.063099,46.1289208 C49.2116139,46.2774356 49.3601287,46.4556535 49.4789406,46.6338713 C51.6175545,49.5150594 50.9937921,53.5843663 48.1423069,55.6932772 C45.2908218,57.8021881 41.1918119,57.2081287 39.082901,54.3566436 L36.6769604,56.1388218 C39.7957723,60.3269406 45.7363663,61.2180297 49.9244851,58.0992178 C54.112604,54.9804059 55.0036931,49.0398119 51.8848812,44.8516931 C51.053198,43.7229802 49.9244851,42.7724851 48.6769604,42.1190198 L52.9244851,29.0794158 C53.2215149,29.0497129 53.5185446,28.9903069 53.8155743,28.871495 C55.7759703,28.2477327 56.8155743,26.0497129 56.1324059,24.0596139" id="Fill-63" fill="#86C351"></path>
                    <path d="" id="Fill-65" fill="#86C351"></path>
                    <path d="" id="Fill-67" fill="#86C351"></path>
                    <path d="" id="Fill-69" fill="#86C351"></path>
                    <path d="" id="Fill-71" fill="#86C351"></path>
                    <path d="" id="Fill-73" fill="#097BFF"></path>
                    <path d="" id="Fill-75" fill="#097BFF"></path>
                    <path d="" id="Fill-77" fill="#097BFF"></path>
                    <path d="" id="Fill-79" fill="#097BFF"></path>
                    <polygon id="Fill-81" fill="#097BFF" points="46.8056733 22.871495 46.8056733 22.871495 44.3106238 21.0596139"></polygon>
                    <path d="" id="Fill-83" fill="#097BFF"></path>
                    <path d="" id="Fill-85" fill="#097BFF"></path>
                    <path d="" id="Fill-87" fill="#097BFF"></path>
                    <path d="" id="Fill-89" fill="#097BFF"></path>
                    <path d="" id="Fill-91" fill="#097BFF"></path>
                    <path d="" id="Fill-93" fill="#097BFF"></path>
                    <path d="" id="Fill-95" fill="#097BFF"></path>
                    <path d="" id="Fill-97" fill="#097BFF"></path>
                    <path d="M61.7165644,22.4556535 C60.053198,17.4952574 54.6769604,14.8219901 49.7165644,16.4853564 C48.3799307,16.930901 47.1324059,17.7328812 46.122505,18.6833762 L35.043297,10.6338713 C35.102703,10.3368416 35.1324059,10.0398119 35.1324059,9.71307921 C35.073,7.60416832 33.3205248,5.94080198 31.2116139,6.00020792 C29.102703,6.05961386 27.4393366,7.81208911 27.4987426,9.921 C27.4987426,10.1883267 27.5581485,10.4556535 27.6175545,10.7229802 C27.8551782,11.7328812 28.5383465,12.5942673 29.4294356,13.1289208 C30.023495,13.4853564 30.7066634,13.6635743 31.4492376,13.6338713 C32.1621089,13.6041683 32.7858713,13.3962475 33.3502277,13.0695149 L44.3106238,21.0299109 L46.8056733,22.8417921 C46.8353762,22.7823861 46.9541881,22.5744653 46.9838911,22.5150594 C47.0135941,22.4853564 47.0135941,22.4556535 47.043297,22.4259505 C47.073,22.3665446 47.102703,22.3071386 47.1324059,22.2477327 C47.1918119,22.1586238 47.2215149,22.0695149 47.2809208,22.0101089 C47.3403267,21.921 47.3997327,21.8318911 47.4591386,21.7427822 C47.5185446,21.6536733 47.5779505,21.5942673 47.6373564,21.5051584 C47.6967624,21.4160495 47.7858713,21.3269406 47.8452772,21.2378317 C47.9046832,21.1784257 47.9640891,21.0893168 48.023495,21.0299109 C48.112604,20.940802 48.2017129,20.8516931 48.2611188,20.7922871 C48.3205248,20.7328812 48.3799307,20.6734752 48.4690396,20.6140693 C48.5284455,20.5843663 48.5581485,20.5249604 48.6175545,20.4952574 C48.6472574,20.4655545 48.7066634,20.4358515 48.7363663,20.4061485 C48.7957723,20.3467426 48.8848812,20.2873366 48.9442871,20.2279307 C49.033396,20.1388218 49.1522079,20.0794158 49.2710198,20.0200099 C49.3304257,19.960604 49.4195347,19.930901 49.4789406,19.871495 C49.5977525,19.8120891 49.7462673,19.7229802 49.8650792,19.6635743 C49.9244851,19.6338713 49.9838911,19.6041683 50.043297,19.5744653 C50.2512178,19.4853564 50.4591386,19.3962475 50.6670594,19.3368416 C54.053198,18.2081287 57.7363663,20.0200099 58.8650792,23.4061485 C59.9937921,26.7922871 58.1819109,30.4754554 54.7957723,31.6041683 L55.7462673,34.4259505 C60.7066634,32.7922871 63.3799307,27.4160495 61.7165644,22.4556535" id="Fill-99" fill="#097BFF"></path>
                    <path d="" id="Fill-101" fill="#097BFF"></path>
                    <path d="" id="Fill-103" fill="#097BFF"></path>
                    <path d="" id="Fill-105" fill="#097BFF"></path>
                    <path d="" id="Fill-107" fill="#097BFF"></path>
                    <path d="" id="Fill-109" fill="#EC3D00"></path>
                    <path d="" id="Fill-111" fill="#EC3D00"></path>
                    <path d="" id="Fill-113" fill="#EC3D00"></path>
                    <path d="" id="Fill-115" fill="#EC3D00"></path>
                    <polygon id="Fill-117" fill="#EC3D00" points="26.6670594 14.3467426 26.6670594 14.3467426 24.1720099 16.1586238"></polygon>
                    <path d="" id="Fill-119" fill="#EC3D00"></path>
                    <path d="" id="Fill-121" fill="#EC3D00"></path>
                    <path d="" id="Fill-123" fill="#EC3D00"></path>
                    <path d="" id="Fill-125" fill="#EC3D00"></path>
                    <path d="" id="Fill-127" fill="#EC3D00"></path>
                    <path d="" id="Fill-129" fill="#EC3D00"></path>
                    <path d="" id="Fill-131" fill="#EC3D00"></path>
                    <path d="" id="Fill-133" fill="#EC3D00"></path>
                    <path d="M30.8848812,0.000207920792 C25.6571584,0.0596138614 21.4393366,4.33684158 21.4987426,9.56456436 C21.4987426,10.9903069 21.8848812,12.3863465 22.4789406,13.6635743 L11.3997327,21.7130792 C11.1324059,21.5645644 10.8650792,21.4457525 10.5680495,21.3566436 C8.54824752,20.7625842 6.40963366,21.921 5.81557426,23.940802 C5.22151485,25.960604 6.37993069,28.0992178 8.39973267,28.6932772 C8.66705941,28.7823861 8.93438614,28.8120891 9.20171287,28.8417921 C10.2413168,28.930901 11.2809208,28.5447624 12.023495,27.8615941 C12.5284455,27.4160495 12.9442871,26.7922871 13.1522079,26.1091188 C13.3601287,25.4259505 13.3601287,24.7427822 13.1819109,24.1190198 L24.1423069,16.1586238 L26.6373564,14.3467426 C26.6076535,14.3170396 26.4294356,14.1091188 26.3997327,14.0794158 L26.3403267,14.0200099 C26.2809208,13.960604 26.2512178,13.930901 26.2215149,13.871495 C26.1621089,13.8120891 26.102703,13.7229802 26.043297,13.6635743 C25.9838911,13.5744653 25.8947822,13.4853564 25.8353762,13.3962475 C25.7759703,13.3071386 25.7165644,13.2477327 25.6571584,13.1586238 C25.5977525,13.0695149 25.5383465,12.9804059 25.4789406,12.8615941 C25.4195347,12.7724851 25.3898317,12.7130792 25.3304257,12.6239703 C25.2710198,12.5348614 25.2116139,12.4160495 25.1819109,12.2972376 C25.1522079,12.2081287 25.092802,12.1190198 25.063099,12.0596139 C25.033396,12.0002079 25.0036931,11.940802 25.0036931,11.881396 C24.9739901,11.8219901 24.9739901,11.7625842 24.9442871,11.7328812 C24.9145842,11.6437723 24.8848812,11.5546634 24.8551782,11.4655545 C24.8254752,11.3467426 24.7957723,11.2279307 24.7660693,11.1091188 C24.7363663,11.0200099 24.7066634,10.930901 24.7066634,10.871495 C24.6769604,10.7229802 24.6472574,10.5744653 24.6472574,10.4556535 C24.6472574,10.3962475 24.6175545,10.3071386 24.6175545,10.2477327 C24.5878515,10.0398119 24.5878515,9.80218812 24.5878515,9.59426733 C24.5581485,6.02991089 27.4393366,3.08931683 31.0036931,3.05961386 C34.5680495,3.02991089 37.5086436,5.91109901 37.5383465,9.47545545 L40.5383465,9.44575248 C40.3898317,4.15862376 36.112604,-0.0294950495 30.8848812,0.000207920792" id="Fill-135" fill="#EC3D00"></path>
                    <path d="" id="Fill-137" fill="#EC3D00"></path>
                    <path d="" id="Fill-139" fill="#EC3D00"></path>
                    <path d="" id="Fill-141" fill="#EC3D00"></path>
                    <path d="" id="Fill-143" fill="#EC3D00"></path>
                    <path d="" id="Fill-145" fill="#00BCD4"></path>
                    <path d="" id="Fill-147" fill="#00BCD4"></path>
                    <path d="" id="Fill-149" fill="#00BCD4"></path>
                    <path d="" id="Fill-151" fill="#00BCD4"></path>
                    <polygon id="Fill-153" fill="#00BCD4" points="12.7957723 30.5645644 12.7957723 30.5645644 13.7462673 33.5051584"></polygon>
                    <path d="" id="Fill-155" fill="#00BCD4"></path>
                    <path d="" id="Fill-157" fill="#00BCD4"></path>
                    <path d="" id="Fill-159" fill="#00BCD4"></path>
                    <path d="" id="Fill-161" fill="#00BCD4"></path>
                    <path d="" id="Fill-163" fill="#00BCD4"></path>
                    <path d="" id="Fill-165" fill="#00BCD4"></path>
                    <path d="" id="Fill-167" fill="#00BCD4"></path>
                    <path d="" id="Fill-169" fill="#00BCD4"></path>
                    <path d="M21.1423069,48.6536733 C20.8749802,48.0299109 20.4294356,47.4655545 19.8056733,47.0497129 C19.2413168,46.6635743 18.5878515,46.4556535 17.9343861,46.3962475 L13.7462673,33.5051584 L12.7957723,30.5645644 C12.7363663,30.5942673 12.5284455,30.6833762 12.4690396,30.7130792 C12.4393366,30.7427822 12.4096337,30.7427822 12.3799307,30.7724851 C12.3205248,30.8021881 12.2611188,30.8318911 12.2017129,30.8615941 C12.112604,30.891297 12.023495,30.950703 11.9343861,30.9804059 C11.8155743,31.0101089 11.7264653,31.0695149 11.6076535,31.0992178 C11.5185446,31.1289208 11.4294356,31.1586238 11.3403267,31.1883267 C11.2215149,31.2180297 11.1324059,31.2477327 11.0135941,31.2774356 C10.9244851,31.3071386 10.8353762,31.3368416 10.7462673,31.3368416 C10.6274554,31.3665446 10.5086436,31.3665446 10.3898317,31.3962475 C10.3007228,31.3962475 10.2116139,31.4259505 10.122505,31.4259505 L9.91458416,31.4259505 L9.73636634,31.4259505 L9.4690396,31.4259505 C9.35022772,31.4259505 9.20171287,31.4259505 9.08290099,31.3962475 C8.99379208,31.3962475 8.90468317,31.3962475 8.81557426,31.3665446 C8.66705941,31.3665446 8.51854455,31.3368416 8.39973267,31.3071386 C8.34032673,31.3071386 8.25121782,31.2774356 8.19181188,31.2774356 C7.98389109,31.2477327 7.7759703,31.1883267 7.53834653,31.0992178 C4.12250495,30.0299109 2.22151485,26.3764455 3.29082178,22.960604 C4.36012871,19.5447624 8.01359406,17.6437723 11.4294356,18.7130792 L12.3205248,15.8615941 C7.33042574,14.2873366 2.01359406,17.0794158 0.439336634,22.0695149 C-1.13492079,27.0596139 1.65715842,32.3764455 6.64725743,33.950703 C7.98389109,34.3665446 9.4690396,34.4556535 10.8353762,34.2774356 L15.082901,47.3170396 C14.8452772,47.5249604 14.6670594,47.7328812 14.4888416,48.0002079 C13.3007228,49.7526832 13.7462673,52.1289208 15.4987426,53.3170396 C17.2512178,54.5051584 19.6274554,54.0596139 20.8155743,52.3071386 C20.9640891,52.0695149 21.112604,51.8318911 21.2017129,51.5942673 C21.5878515,50.6734752 21.5581485,49.5744653 21.1423069,48.6536733" id="Fill-171" fill="#00BCD4"></path>
                    <path d="" id="Fill-173" fill="#00BCD4"></path>
                    <path d="" id="Fill-175" fill="#00BCD4"></path>
                    <path d="" id="Fill-177" fill="#00BCD4"></path>
                    <path d="" id="Fill-179" fill="#00BCD4"></path>
                </g>
                <g id="Group-182" transform="translate(72.772277, 12.237624)" fill="#333333">
                    <path d="M0,10.7168317 L4.2380198,10.7168317 L4.2380198,34.7809901 L5.21227723,34.7809901 L5.21227723,10.7168317 L10.6194059,10.7168317 L10.6194059,9.74257426 L5.21227723,9.74257426 L5.21227723,4.53029703 C5.21227723,3.29623145 5.44772042,2.39505235 5.91861386,1.82673267 C6.3895073,1.258413 7.40434864,0.974257426 8.96316832,0.974257426 C9.32039783,0.974257426 9.67762198,0.990494887 10.0348515,1.0229703 C10.392081,1.05544571 10.7980175,1.10415809 11.2526733,1.16910891 L11.2526733,0.194851485 C10.99287,0.162376075 10.692477,0.121782422 10.3514851,0.0730693069 C10.0104933,0.0243561921 9.61267554,0 9.1580198,0 C8.63841324,0 8.08633956,0.0324749228 7.50178218,0.0974257426 C6.9172248,0.162376562 6.38138857,0.332869907 5.89425743,0.608910891 C5.40712628,0.884951875 5.00930847,1.29900714 4.70079208,1.85108911 C4.39227569,2.40317108 4.2380198,3.18256922 4.2380198,4.18930693 L4.2380198,9.74257426 L0,9.74257426 L0,10.7168317 Z M12.5679208,17.4879208 L13.5421782,17.4879208 C13.7045553,15.1496913 14.5164283,13.3392143 15.9778218,12.0564356 C17.4392152,10.773657 19.4851354,10.1322772 22.1156436,10.1322772 C23.7718895,10.1322772 25.0871238,10.351483 26.0613861,10.789901 C27.0356484,11.228319 27.7744529,11.7885114 28.2778218,12.470495 C28.7811906,13.1524787 29.0978211,13.8994019 29.2277228,14.7112871 C29.3576244,15.5231724 29.4225743,16.3025705 29.4225743,17.049505 C29.4225743,17.9912918 29.2358435,18.7138589 28.8623762,19.2172277 C28.488909,19.7205966 27.9043604,20.0940582 27.1087129,20.3376238 C26.3130653,20.5811893 25.298224,20.743564 24.0641584,20.8247525 C22.8300928,20.905941 21.3524839,20.995247 19.6312871,21.0926733 C18.592074,21.1576241 17.5528765,21.2956425 16.5136634,21.5067327 C15.4744502,21.7178228 14.548915,22.0912844 13.7370297,22.6271287 C12.9251445,23.162973 12.2675273,23.9017775 11.7641584,24.8435644 C11.2607896,25.7853512 11.0091089,27.0356358 11.0091089,28.5944554 C11.0091089,30.8352587 11.7722696,32.515836 13.2986139,33.6362376 C14.8249581,34.7566393 16.8546408,35.3168317 19.3877228,35.3168317 C20.6867392,35.3168317 21.8883113,35.1463383 22.9924752,34.8053465 C24.0966392,34.4643547 25.0790056,34.0015871 25.939604,33.4170297 C26.8002023,32.8324723 27.5146506,32.1667364 28.0829703,31.419802 C28.65129,30.6728676 29.0653452,29.8934694 29.3251485,29.0815842 L29.4225743,29.0815842 L29.4225743,32.3453465 C29.4225743,33.2871334 29.6904924,33.9285131 30.2263366,34.269505 C30.7621809,34.6104968 31.3873232,34.7809901 32.1017822,34.7809901 L33.5631683,34.7809901 L33.5631683,33.8067327 C33.2384142,33.8392081 32.8893088,33.8635643 32.5158416,33.879802 C32.1423744,33.8960397 31.793269,33.8635648 31.4685149,33.7823762 C31.1437608,33.7011877 30.8839614,33.5469318 30.6891089,33.319604 C30.4942565,33.0922761 30.3968317,32.7350519 30.3968317,32.2479208 L30.3968317,16.3188119 C30.3643563,14.9548447 30.1207944,13.8182224 29.6661386,12.9089109 C29.2114829,11.9995994 28.6106968,11.2607949 27.8637624,10.6924752 C27.1168279,10.1241556 26.2481238,9.72633777 25.2576238,9.4990099 C24.2671238,9.27168203 23.2198075,9.1580198 22.1156436,9.1580198 C20.5568239,9.1580198 19.2009959,9.3691068 18.0481188,9.79128713 C16.8952418,10.2134675 15.9209941,10.7980161 15.1253465,11.5449505 C14.329699,12.2918849 13.7207942,13.1768266 13.2986139,14.199802 C12.8764335,15.2227774 12.6328716,16.318806 12.5679208,17.4879208 L12.5679208,17.4879208 Z M29.4225743,20.069703 L29.4225743,24.6974257 C29.4225743,25.9314913 29.2033685,27.1330635 28.7649505,28.3021782 C28.3265325,29.471293 27.677034,30.5023718 26.8164356,31.3954455 C25.9558373,32.2885193 24.8922836,33.0110863 23.6257426,33.5631683 C22.3592016,34.1152503 20.9140675,34.3912871 19.290297,34.3912871 C17.9263298,34.3912871 16.7815888,34.2207938 15.8560396,33.879802 C14.9304904,33.5388102 14.1754485,33.1003987 13.5908911,32.5645545 C13.0063337,32.0287102 12.5922784,31.4116867 12.3487129,30.7134653 C12.1051473,30.015244 11.9833663,29.3089145 11.9833663,28.5944554 C11.9833663,27.2629636 12.1944533,26.1831725 12.6166337,25.3550495 C13.038814,24.5269266 13.6071251,23.8774281 14.3215842,23.4065347 C15.0360432,22.9356412 15.856035,22.610892 16.7815842,22.4322772 C17.7071333,22.2536625 18.6570248,22.1318815 19.6312871,22.0669307 C20.6055494,22.0019799 21.6041533,21.9532675 22.6271287,21.9207921 C23.6501041,21.8883167 24.5999956,21.8071294 25.4768317,21.6772277 C26.3536678,21.5473261 27.1330659,21.3605953 27.8150495,21.1170297 C28.4970331,20.8734641 29.0003944,20.5243587 29.3251485,20.069703 L29.4225743,20.069703 Z M52.3663366,17.1469307 L53.3405941,17.1469307 C53.3405941,14.3540454 52.528721,12.3243628 50.9049505,11.0578218 C49.28118,9.7912808 47.0728853,9.1580198 44.28,9.1580198 C42.7211803,9.1580198 41.405946,9.35286934 40.3342574,9.74257426 C39.2625689,10.1322792 38.385746,10.6356405 37.7037624,11.2526733 C37.0217788,11.8697061 36.5346549,12.5516794 36.2423762,13.2986139 C35.9500975,14.0455483 35.8039604,14.7599966 35.8039604,15.4419802 C35.8039604,16.8059474 36.0475223,17.8938573 36.5346535,18.7057426 C37.0217846,19.5176278 37.7849453,20.1508888 38.8241584,20.6055446 C39.5386174,20.9302987 40.3504905,21.222573 41.259802,21.4823762 C42.1691135,21.7421795 43.2245484,22.0182164 44.4261386,22.310495 C45.4978271,22.5702983 46.5532621,22.8300977 47.5924752,23.089901 C48.6316884,23.3497043 49.5491049,23.6988097 50.3447525,24.1372277 C51.1404,24.5756458 51.7898985,25.1358382 52.2932673,25.8178218 C52.7966362,26.4998054 53.0483168,27.3928658 53.0483168,28.4970297 C53.0483168,29.5687182 52.7966362,30.4780161 52.2932673,31.2249505 C51.7898985,31.9718849 51.1485187,32.5807897 50.3691089,33.0516832 C49.5896991,33.5225766 48.7209949,33.8635633 47.7629703,34.0746535 C46.8049457,34.2857436 45.8712917,34.3912871 44.9619802,34.3912871 C42.0067179,34.3912871 39.741592,33.7336699 38.1665347,32.4184158 C36.5914773,31.1031617 35.8039604,29.0328854 35.8039604,26.2075248 L34.829703,26.2075248 C34.829703,29.3576395 35.6821697,31.663359 37.3871287,33.1247525 C39.0920877,34.5861459 41.617013,35.3168317 44.9619802,35.3168317 C46.0336687,35.3168317 47.1134599,35.1950507 48.2013861,34.9514851 C49.2893124,34.7079196 50.2635601,34.3101018 51.1241584,33.7580198 C51.9847568,33.2059378 52.6829676,32.4914895 53.2188119,31.6146535 C53.7546561,30.7378174 54.0225743,29.6661449 54.0225743,28.399604 C54.0225743,27.1980138 53.7871311,26.2237661 53.3162376,25.4768317 C52.8453442,24.7298973 52.2283206,24.1128737 51.4651485,23.6257426 C50.7019764,23.1386114 49.8413909,22.7570311 48.8833663,22.4809901 C47.9253417,22.2049491 46.9592128,21.937031 45.9849505,21.6772277 C44.6209833,21.3199982 43.4275299,21.0114864 42.4045545,20.7516832 C41.381579,20.4918799 40.4316876,20.1833681 39.5548515,19.8261386 C38.7104908,19.4689091 38.0366362,18.9574291 37.5332673,18.2916832 C37.0298985,17.6259373 36.7782178,16.6760458 36.7782178,15.4419802 C36.7782178,15.2146523 36.8431677,14.8087158 36.9730693,14.2241584 C37.1029709,13.639601 37.4114827,13.0469337 37.8986139,12.4461386 C38.385745,11.8453435 39.1326682,11.3095073 40.1394059,10.8386139 C41.1461436,10.3677204 42.5263279,10.1322772 44.28,10.1322772 C45.4815902,10.1322772 46.5776188,10.2621769 47.5681188,10.5219802 C48.5586188,10.7817835 49.4110855,11.1958387 50.1255446,11.7641584 C50.8400036,12.3324781 51.3920773,13.0550451 51.7817822,13.9318812 C52.1714871,14.8087173 52.3663366,15.8803897 52.3663366,17.1469307 L52.3663366,17.1469307 Z M61.2807921,10.7168317 L66.9314851,10.7168317 L66.9314851,9.74257426 L61.2807921,9.74257426 L61.2807921,1.85108911 L60.3065347,1.85108911 L60.3065347,9.74257426 L55.7275248,9.74257426 L55.7275248,10.7168317 L60.3065347,10.7168317 L60.3065347,30.1045545 C60.3065347,31.890702 60.7043525,33.1166303 61.5,33.7823762 C62.2956475,34.4481221 63.2617765,34.7809901 64.3984158,34.7809901 C65.1453503,34.7809901 65.6568303,34.7647526 65.9328713,34.7322772 C66.2089123,34.6998018 66.4930678,34.6673269 66.7853465,34.6348515 L66.7853465,33.6605941 C66.6229695,33.7255449 66.3469326,33.7661385 65.9572277,33.7823762 C65.5675228,33.7986139 65.1291113,33.8067327 64.6419802,33.8067327 C64.2522753,33.8067327 63.8625762,33.7823765 63.4728713,33.7336634 C63.0831664,33.6849503 62.7259422,33.5306944 62.4011881,33.2708911 C62.076434,33.0110878 61.8085159,32.6213887 61.5974257,32.1017822 C61.3863356,31.5821756 61.2807921,30.8514899 61.2807921,29.909703 L61.2807921,10.7168317 Z M70.3413861,0 L70.3413861,34.7809901 L71.3156436,34.7809901 L71.3156436,0 L70.3413861,0 Z M76.6253465,17.4879208 L77.599604,17.4879208 C77.761981,15.1496913 78.5738541,13.3392143 80.0352475,12.0564356 C81.496641,10.773657 83.5425611,10.1322772 86.1730693,10.1322772 C87.8293152,10.1322772 89.1445496,10.351483 90.1188119,10.789901 C91.0930742,11.228319 91.8318787,11.7885114 92.3352475,12.470495 C92.8386164,13.1524787 93.1552469,13.8994019 93.2851485,14.7112871 C93.4150502,15.5231724 93.48,16.3025705 93.48,17.049505 C93.48,17.9912918 93.2932692,18.7138589 92.919802,19.2172277 C92.5463348,19.7205966 91.9617862,20.0940582 91.1661386,20.3376238 C90.3704911,20.5811893 89.3556497,20.743564 88.1215842,20.8247525 C86.8875186,20.905941 85.4099096,20.995247 83.6887129,21.0926733 C82.6494998,21.1576241 81.6103022,21.2956425 80.5710891,21.5067327 C79.531876,21.7178228 78.6063407,22.0912844 77.7944554,22.6271287 C76.9825702,23.162973 76.324953,23.9017775 75.8215842,24.8435644 C75.3182153,25.7853512 75.0665347,27.0356358 75.0665347,28.5944554 C75.0665347,30.8352587 75.8296953,32.515836 77.3560396,33.6362376 C78.8823839,34.7566393 80.9120665,35.3168317 83.4451485,35.3168317 C84.7441649,35.3168317 85.9457371,35.1463383 87.049901,34.8053465 C88.1540649,34.4643547 89.1364313,34.0015871 89.9970297,33.4170297 C90.8576281,32.8324723 91.5720764,32.1667364 92.140396,31.419802 C92.7087157,30.6728676 93.122771,29.8934694 93.3825743,29.0815842 L93.48,29.0815842 L93.48,32.3453465 C93.48,33.2871334 93.7479181,33.9285131 94.2837624,34.269505 C94.8196066,34.6104968 95.4447489,34.7809901 96.1592079,34.7809901 L97.6205941,34.7809901 L97.6205941,33.8067327 C97.29584,33.8392081 96.9467345,33.8635643 96.5732673,33.879802 C96.1998001,33.8960397 95.8506947,33.8635648 95.5259406,33.7823762 C95.2011865,33.7011877 94.9413871,33.5469318 94.7465347,33.319604 C94.5516822,33.0922761 94.4542574,32.7350519 94.4542574,32.2479208 L94.4542574,16.3188119 C94.421782,14.9548447 94.1782201,13.8182224 93.7235644,12.9089109 C93.2689086,11.9995994 92.6681225,11.2607949 91.9211881,10.6924752 C91.1742537,10.1241556 90.3055495,9.72633777 89.3150495,9.4990099 C88.3245495,9.27168203 87.2772332,9.1580198 86.1730693,9.1580198 C84.6142496,9.1580198 83.2584216,9.3691068 82.1055446,9.79128713 C80.9526675,10.2134675 79.9784198,10.7980161 79.1827723,11.5449505 C78.3871247,12.2918849 77.7782199,13.1768266 77.3560396,14.199802 C76.9338593,15.2227774 76.6902974,16.318806 76.6253465,17.4879208 L76.6253465,17.4879208 Z M93.48,20.069703 L93.48,24.6974257 C93.48,25.9314913 93.2607943,27.1330635 92.8223762,28.3021782 C92.3839582,29.471293 91.7344597,30.5023718 90.8738614,31.3954455 C90.013263,32.2885193 88.9497093,33.0110863 87.6831683,33.5631683 C86.4166273,34.1152503 84.9714933,34.3912871 83.3477228,34.3912871 C81.9837556,34.3912871 80.8390145,34.2207938 79.9134653,33.879802 C78.9879162,33.5388102 78.2328742,33.1003987 77.6483168,32.5645545 C77.0637595,32.0287102 76.6497042,31.4116867 76.4061386,30.7134653 C76.162573,30.015244 76.0407921,29.3089145 76.0407921,28.5944554 C76.0407921,27.2629636 76.2518791,26.1831725 76.6740594,25.3550495 C77.0962397,24.5269266 77.6645509,23.8774281 78.3790099,23.4065347 C79.0934689,22.9356412 79.9134607,22.610892 80.8390099,22.4322772 C81.7645591,22.2536625 82.7144506,22.1318815 83.6887129,22.0669307 C84.6629752,22.0019799 85.661579,21.9532675 86.6845545,21.9207921 C87.7075299,21.8883167 88.6574214,21.8071294 89.5342574,21.6772277 C90.4110935,21.5473261 91.1904916,21.3605953 91.8724752,21.1170297 C92.5544589,20.8734641 93.0578202,20.5243587 93.3825743,20.069703 L93.48,20.069703 Z M100.10495,9.74257426 L100.10495,34.7809901 L101.079208,34.7809901 L101.079208,20.6055446 C101.079208,19.2091019 101.274057,17.8776301 101.663762,16.6110891 C102.053467,15.3445481 102.629897,14.232282 103.393069,13.2742574 C104.156241,12.3162328 105.106133,11.5530721 106.242772,10.9847525 C107.379412,10.4164328 108.694646,10.1322772 110.188515,10.1322772 C111.260203,10.1322772 112.275045,10.2865331 113.233069,10.5950495 C114.191094,10.9035659 115.035442,11.3906897 115.766139,12.0564356 C116.496835,12.7221815 117.073265,13.5665295 117.495446,14.589505 C117.917626,15.6124804 118.128713,16.8546462 118.128713,18.3160396 L118.128713,34.7809901 L119.10297,34.7809901 L119.10297,18.169901 C119.10297,16.7085075 118.883765,15.4176294 118.445347,14.2972277 C118.006929,13.1768261 117.389905,12.2350533 116.594257,11.4718812 C115.79861,10.7087091 114.856837,10.1322792 113.768911,9.74257426 C112.680985,9.35286934 111.487531,9.1580198 110.188515,9.1580198 C108.954449,9.1580198 107.834064,9.32851315 106.827327,9.66950495 C105.820589,10.0104968 104.935647,10.4895019 104.172475,11.1065347 C103.409303,11.7235674 102.776042,12.4380157 102.272673,13.249901 C101.769304,14.0617862 101.403962,14.9548466 101.176634,15.9291089 L101.079208,15.9291089 L101.079208,9.74257426 L100.10495,9.74257426 Z M123.974257,22.4566337 L144.920792,22.4566337 C144.985743,20.7354369 144.81525,19.0792159 144.409307,17.4879208 C144.003364,15.8966257 143.353866,14.4839666 142.460792,13.249901 C141.567718,12.0158354 140.414859,11.0253503 139.002178,10.2784158 C137.589498,9.53148141 135.908921,9.1580198 133.960396,9.1580198 C132.563953,9.1580198 131.200007,9.45029411 129.868515,10.0348515 C128.537023,10.6194089 127.367926,11.4718756 126.361188,12.5922772 C125.35445,13.7126789 124.542577,15.0847444 123.925545,16.7085149 C123.308512,18.3322853 123,20.1833559 123,22.2617822 C123,24.1128805 123.211087,25.8421702 123.633267,27.449703 C124.055448,29.0572358 124.704946,30.4536574 125.581782,31.6390099 C126.458618,32.8243624 127.587122,33.7417789 128.967327,34.3912871 C130.347532,35.0407953 132.011871,35.3493071 133.960396,35.3168317 C136.818232,35.3168317 139.221376,34.5130773 141.169901,32.9055446 C143.118426,31.2980118 144.271285,29.0328859 144.628515,26.110099 L143.654257,26.110099 C143.232077,28.8705089 142.152286,30.9407852 140.414851,32.3209901 C138.677417,33.701195 136.493478,34.3912871 133.86297,34.3912871 C132.076823,34.3912871 130.566739,34.0827754 129.332673,33.4657426 C128.098608,32.8487098 127.091885,32.0043618 126.312475,30.9326733 C125.533065,29.8609847 124.956636,28.6025815 124.583168,27.1574257 C124.209701,25.71227 124.006733,24.145355 123.974257,22.4566337 L123.974257,22.4566337 Z M143.946535,21.4823762 L123.974257,21.4823762 C124.071684,19.7287041 124.396433,18.1536703 124.948515,16.7572277 C125.500597,15.3607851 126.223164,14.1673317 127.116238,13.1768317 C128.009311,12.1863317 129.048509,11.4312897 130.233861,10.9116832 C131.419214,10.3920766 132.693855,10.1322772 134.057822,10.1322772 C135.681592,10.1322772 137.110489,10.4326703 138.344554,11.0334653 C139.57862,11.6342604 140.609699,12.4542522 141.437822,13.4934653 C142.265945,14.5326785 142.891087,15.7423693 143.313267,17.1225743 C143.735448,18.5027792 143.946535,19.956032 143.946535,21.4823762 L143.946535,21.4823762 Z" id="fastlane"></path>
                </g>
            </g>
        </g>
    </g>
</svg>