<svg width="133" height="35" viewBox="0 0 133 35" xmlns="http://www.w3.org/2000/svg" xmlns:xlink="http://www.w3.org/1999/xlink"><title>GoPro</title><defs><path id="a" d="M0 .054h132.35V35H0V.054z"/><path id="c" d="M0 .054h132.35V35H0V.054z"/></defs><g fill="none" fill-rule="evenodd"><path d="M28.185 13.667v-3.604c0-.59-.483-1.073-1.073-1.073h-8.706c-.82 0-1.484.667-1.484 1.49 0 .822.664 1.489 1.485 1.489h5.682v1.504c0 1.18-1.51 2.145-3.357 2.145H7.388c-1.846 0-3.356-.965-3.356-2.145V4.954c0-1.18 1.51-2.145 3.356-2.145h6.417c.75 0 1.358-.61 1.358-1.362A1.36 1.36 0 0 0 13.805.084H6.976C3.14.084 0 2.094 0 4.552v9.115c0 2.457 3.14 4.468 6.976 4.468h14.232c3.837 0 6.977-2.01 6.977-4.468M36.2 13.555V8.61c0-1.18 1.761-2.144 3.914-2.144h9.034c2.153 0 3.914.965 3.914 2.144v4.945c0 1.18-1.76 2.145-3.914 2.145h-9.034c-2.153 0-3.914-.965-3.914-2.145m-3.867-4.974v5.004c0 2.556 3.597 4.647 7.994 4.647h8.609c4.396 0 7.993-2.091 7.993-4.647V8.58c0-2.556-3.597-4.647-7.993-4.647h-8.61c-4.396 0-7.993 2.09-7.993 4.647" fill="#333"/><mask id="b" fill="#fff"><use xlink:href="#a"/></mask><path d="M65.158 8.99V2.586h16.877c1.94 0 3.525.897 3.525 1.993v2.418c0 1.096-1.586 1.993-3.525 1.993H65.158zm-4.17-6.106v14.164c0 .688.563 1.25 1.25 1.25h1.669c.688 0 1.251-.562 1.251-1.25V11.82H81.39c4.521 0 8.22-2.091 8.22-4.647V4.701c0-2.556-3.699-4.647-8.22-4.647H62.239c-.688 0-1.251.563-1.251 1.251v1.579z" fill="#333" mask="url(#b)"/><path d="M93.099 8.58v8.393c0 .688.563 1.251 1.25 1.251h1.366c.688 0 1.25-.563 1.25-1.25V8.61c0-1.18 1.762-2.144 3.915-2.144h2.866c.7 0 1.269-.567 1.269-1.266 0-.7-.569-1.266-1.27-1.266h-2.652c-4.397 0-7.994 2.09-7.994 4.647M111.621 13.555V8.61c0-1.18 1.761-2.144 3.914-2.144h9.035c2.152 0 3.914.965 3.914 2.144v4.945c0 1.18-1.762 2.145-3.914 2.145h-9.035c-2.153 0-3.914-.965-3.914-2.145m-3.867-4.974v5.004c0 2.556 3.597 4.647 7.994 4.647h8.609c4.396 0 7.994-2.091 7.994-4.647V8.58c0-2.556-3.598-4.647-7.994-4.647h-8.61c-4.396 0-7.993 2.09-7.993 4.647" fill="#333"/><mask id="d" fill="#fff"><use xlink:href="#c"/></mask><path d="M72.452 23.085H56.218V35h16.234V23.085zM76.235 35H92.47V23.085H76.235V35z" fill="#00ADEF" mask="url(#d)"/><path d="M95.895 35h16.234V23.085H95.895V35z" fill="#0C4CA3" mask="url(#d)"/><path d="M115.912 35h16.234V23.085h-16.234V35z" fill="#000" mask="url(#d)"/></g></svg>