<svg id="Layer_1" xmlns="http://www.w3.org/2000/svg" viewBox="0 0 380 60"><style>.st0{fill:#333}.st1{fill:#3edd72}</style><path class="st0" d="M40.3 39.9c.8 1 1.3 2.3 1.3 3.7 0 1.9-.7 3.5-2 4.8-1.3 1.3-2.9 2-4.8 2-2.1 0-3.6-.7-4.7-2L19.9 35.7v7c0 2-.4 3.6-1.1 4.7-1.3 2-3.1 3-5.5 3-2.2 0-3.9-.7-5.1-2.2-1.1-1.4-1.7-3.2-1.7-5.5v-26c0-2.1.6-3.9 1.7-5.3 1.2-1.5 2.9-2.2 5-2.2 2 0 3.7.7 5.1 2.2.8.8 1.2 1.6 1.4 2.5.1.5.2 1.5.2 2.9v6.5l7.6-11c1.4-2.1 3.3-3.1 5.5-3.1 1.8 0 3.4.7 4.8 2s2 2.9 2 4.7c0 1.3-.4 2.5-1.1 3.6L32 29.3l8.3 10.6zM50.8 9.2c-2 0-3.7.7-5 2.2-1.1 1.3-1.7 3.3-1.7 6.1v25.2c0 2.5.6 4.3 1.7 5.5 1.3 1.4 3 2.2 5 2.2 2.1 0 3.8-.8 5-2.3 1.1-1.4 1.7-3.2 1.7-5.4V17.5c0-2.8-.6-4.8-1.7-6.2-1.4-1.4-3-2.1-5-2.1zm30.7 12.6c2.3 0 4.2.8 5.7 2.5 1.6 1.8 2.7 2.8 3.1 3 1 .5 2 .8 3.1.8 1.3 0 2.6-.4 3.7-1.1 2-1.3 3-3.2 3-5.5 0-2.8-1.6-5.5-4.9-8.1-4.2-3.3-8.7-5-13.7-5-5.8 0-10.7 2-14.7 5.8-4.6 4.3-6.9 9.6-6.9 15.7 0 4.1 1.1 7.9 3.3 11.4 2.2 3.5 5.2 6.1 8.9 7.9 2.9 1.4 6.1 2.1 9.4 2.1 5.4 0 10.1-1.8 14.2-5.4 2.9-2.5 4.4-5 4.4-7.5 0-1.8-.7-3.4-2-4.7-1.3-1.3-2.9-1.9-4.8-1.9-1.6 0-2.9.4-3.9 1.3s-1.9 1.9-2.9 2.8c-1.6 1.2-3.3 1.9-5.1 1.9-2.2 0-4-.8-5.5-2.3-1.5-1.5-2.3-3.4-2.3-5.6 0-2.2.7-4.1 2.3-5.6 1.5-1.7 3.4-2.5 5.6-2.5zm54.9 18.1L128 29.3l6.8-9.9c.7-1 1.1-2.2 1.1-3.6 0-1.8-.7-3.4-2-4.7-1.4-1.3-2.9-2-4.8-2-2.3 0-4.1 1-5.5 3.1l-7.6 11v-6.5c0-1.4-.1-2.4-.2-2.9-.2-.8-.7-1.7-1.4-2.5-1.3-1.5-3-2.2-5.1-2.2-2.1 0-3.8.7-5 2.2-1.2 1.4-1.7 3.2-1.7 5.3v26.1c0 2.3.6 4.1 1.7 5.5 1.2 1.5 2.9 2.2 5.1 2.2 2.4 0 4.3-1 5.5-3 .7-1.1 1-2.7 1-4.7v-7l10.2 12.7c1.1 1.3 2.6 2 4.7 2 1.9 0 3.5-.7 4.8-2 1.3-1.3 2-2.9 2-4.8 0-1.4-.4-2.7-1.2-3.7z"/><path class="st1" d="M166.5 28.2c2.7 2.3 4.1 5.4 4.1 9.5 0 4.4-1.5 7.9-4.6 10.4-2.8 2.3-6.5 3.5-11.1 3.5s-8.3-1.2-11.3-3.6c-2.4-1.9-3.6-4.2-3.6-6.8 0-1.7.6-3.2 1.8-4.3 1.2-1.2 2.6-1.7 4.3-1.8 1.5 0 3.1.6 4.8 2 2.1 1.6 3.5 2.5 4.3 2.5 1.2 0 1.7-.6 1.7-1.8 0-.7-.3-1.2-1-1.7-.4-.2-2.4-1-6-2.3-6-2.1-9-6-9-11.7 0-4.3 1.6-7.7 4.7-10.2 2.8-2.2 6.2-3.2 10.3-3.2 3.5 0 6.6.8 9.2 2.5 2.6 1.7 3.9 3.8 3.9 6.5 0 1.6-.5 2.9-1.5 4s-2.3 1.6-3.8 1.6c-1.6 0-3.5-.8-5.5-2.4-1.2-1-2.2-1.5-2.8-1.5-1.1 0-1.6.5-1.6 1.6 0 1 1.4 1.9 4 2.8 3.7 1.3 6.6 2.7 8.7 4.4zM205.8 16.1c0-1.2-.3-2.3-1-3.3-.7-1.1-1.5-1.8-2.6-2.2-1-.4-3.1-.6-6.4-.6h-13.5c-3.8 0-6.3.2-7.3.7-1 .4-1.9 1.2-2.5 2.3-.6 1.1-1 2.2-1 3.3 0 1.9.7 3.5 2.1 4.6 1.3 1.1 2.9 1.6 4.9 1.6h3.5v20.4c0 2.3.4 4.1 1.2 5.2 1.3 1.9 3.1 2.8 5.5 2.8s4.2-1 5.5-3c.8-1.2 1.1-2.9 1.1-5.1V22.4h3.1c2.4 0 4.1-.5 5.1-1.5 1.6-1.4 2.3-3 2.3-4.8zM227 13.7c-1.3-2.7-3.4-4.1-6.3-4.1s-4.9 1.3-6.2 4l-12.7 27.1c-.6 1.2-.8 2.4-.8 3.5 0 1.4.4 2.7 1.2 3.8 1.3 1.9 3.1 2.9 5.5 2.9 1.9 0 3.6-.7 4.9-2.2.7-.7 1.3-1.9 2-3.4H227c.9 1.8 1.7 3.2 2.6 4 1.2 1.1 2.6 1.6 4.3 1.6 2.1 0 3.8-.8 5.2-2.4 1-1.2 1.5-2.6 1.5-4.2 0-1.1-.3-2.2-.8-3.2L227 13.7zM270.2 34.9c2.9-3.3 4.4-6.7 4.4-10.4 0-2-.4-3.9-1.3-5.9-1.1-2.6-2.9-4.7-5.3-6.3-2.4-1.6-5-2.4-7.8-2.4h-8.5c-5.5 0-8.3 2.6-8.3 7.7v25c0 2.4.5 4.3 1.6 5.7 1.2 1.6 2.9 2.5 5.2 2.5 1.9 0 3.5-.7 4.7-2 1.2-1.3 1.9-2.9 1.9-4.8v-5.5l5.6 9.2c1.3 2.1 3.1 3.1 5.5 3.1 1.9 0 3.5-.6 4.8-1.9 1.3-1.2 2-2.8 2-4.7 0-1.5-.4-2.9-1.3-4.3l-3.2-5zM306.4 10.5c-1-.4-3.1-.6-6.4-.6h-13.5c-3.8 0-6.2.2-7.3.7-1 .4-1.9 1.2-2.5 2.3-.6 1.1-1 2.2-1 3.3 0 1.9.7 3.5 2.1 4.6 1.3 1.1 2.9 1.6 4.9 1.6h3.5v20.4c0 2.3.4 4.1 1.2 5.2 1.3 1.9 3.1 2.8 5.5 2.8s4.2-1 5.5-3c.8-1.2 1.1-2.9 1.1-5.1V22.5h3.1c2.4 0 4.1-.5 5.2-1.5 1.5-1.4 2.2-3 2.2-4.8 0-1.2-.3-2.3-1-3.3-.7-1.2-1.6-2-2.6-2.4zM332.5 22.5c2.2 0 3.9-.5 5.2-1.5 1.4-1.1 2.1-2.8 2.1-4.9 0-2-.8-3.6-2.4-4.8-.9-.7-2.1-1.1-3.5-1.3-.4 0-1.6-.1-3.8-.1h-8c-2.1 0-3.5.1-4.2.2-1.5.3-2.7.9-3.6 1.9-.8.9-1.4 2-1.6 3.3-.1.6-.2 1.9-.2 3.7v22.1c0 2.4.2 4.2.5 5.3.6 1.7 1.8 2.9 3.5 3.6.9.4 2.6.6 5.1.6H332c2.6 0 4.4-.5 5.6-1.4 1.5-1.2 2.2-2.8 2.2-4.8 0-1.9-.7-3.5-2.2-4.8-1.2-1-3.1-1.6-5.6-1.6h-6.1v-3.1h4.8c3.9 0 5.9-1.6 5.9-4.9 0-1.5-.5-2.7-1.6-3.6-1-.8-2.3-1.2-3.8-1.2h-5.3v-2.8h6.6zM372.2 40l-3.2-5.1c2.9-3.3 4.4-6.7 4.4-10.4 0-2-.4-3.9-1.3-5.9-1.1-2.6-2.9-4.7-5.3-6.3-2.4-1.6-5-2.4-7.8-2.4h-8.5c-5.5 0-8.3 2.6-8.3 7.7v25c0 2.4.5 4.3 1.6 5.7 1.2 1.6 2.9 2.5 5.2 2.5 1.9 0 3.4-.7 4.7-2 1.2-1.3 1.9-2.9 1.9-4.8v-5.5l5.6 9.2c1.3 2.1 3.1 3.1 5.5 3.1 1.9 0 3.5-.6 4.8-1.9 1.3-1.2 2-2.8 2-4.7 0-1.4-.5-2.8-1.3-4.2z"/></svg>