<svg width="182" height="25" viewBox="0 0 182 25" xmlns="http://www.w3.org/2000/svg"><title>NEXTDOOR</title><g fill="#1C8E58" fill-rule="evenodd"><path d="M38.82.063h5.333l10.186 16.403h.069V.063h5.025v24.45h-5.367L43.914 8.146h-.069v16.369H38.82V.063M74.712 13.761c-.445-2.466-1.504-3.767-3.863-3.767-3.076 0-3.965 2.397-4.034 3.767h7.897zm-7.897 3.082c.138 3.082 1.641 4.486 4.342 4.486 1.949 0 3.52-1.198 3.828-2.294h4.273c-1.367 4.178-4.273 5.958-8.272 5.958-5.572 0-9.024-3.835-9.024-9.314 0-5.308 3.657-9.35 9.024-9.35 6.016 0 8.922 5.07 8.58 10.514h-12.75z"/><path d="M85.377 15.199l-5.812-8.39h5.538l3.11 4.623L91.29 6.81h5.367l-5.811 8.287 6.529 9.418h-5.538l-3.692-5.582-3.691 5.582h-5.436l6.359-9.315M105.27 6.809h3.555v3.253h-3.555v8.767c0 1.644.41 2.055 2.051 2.055.513 0 .991-.034 1.504-.137v3.801c-.82.137-1.88.171-2.837.171-2.974 0-5.572-.685-5.572-4.212V10.062h-2.94V6.81h2.94V1.501h4.854V6.81M118.635 9.994c-3.179 0-4.273 2.74-4.273 5.65 0 2.774 1.265 5.685 4.273 5.685 3.213 0 4.17-2.808 4.17-5.719 0-2.876-1.025-5.616-4.17-5.616zm4.239 12.26h-.069c-1.127 1.917-3.11 2.74-5.366 2.74-5.333 0-7.93-4.59-7.93-9.486 0-4.76 2.631-9.178 7.827-9.178 2.085 0 4.136.89 5.23 2.637h.068V.063h4.855v24.45h-4.615v-2.26zM138.905 21.33c3.315 0 4.307-2.843 4.307-5.65 0-2.844-.992-5.686-4.307-5.686-3.282 0-4.273 2.842-4.273 5.685 0 2.808.991 5.65 4.273 5.65zm0-15c5.572 0 9.16 3.699 9.16 9.35 0 5.615-3.588 9.313-9.16 9.313-5.538 0-9.127-3.698-9.127-9.314 0-5.65 3.59-9.35 9.127-9.35zM158.936 21.33c3.315 0 4.307-2.843 4.307-5.65 0-2.844-.992-5.686-4.307-5.686-3.282 0-4.273 2.842-4.273 5.685 0 2.808.991 5.65 4.273 5.65zm0-15c5.572 0 9.16 3.699 9.16 9.35 0 5.615-3.588 9.313-9.16 9.313-5.538 0-9.127-3.698-9.127-9.314 0-5.65 3.589-9.35 9.127-9.35zM170.455 6.809h4.614v3.287h.069c.889-2.225 3.281-3.766 5.64-3.766.342 0 .752.068 1.06.171v4.52c-.444-.102-1.163-.17-1.744-.17-3.555 0-4.785 2.567-4.785 5.684v7.979h-4.854V6.809M14.853.179L9.53 3.454V.107H4.859v6.222L0 9.32l2.533 4.122 2.326-1.448v12.532h20.35V12.002l2.07 1.268 2.43-3.978L14.852.179"/></g></svg>