<svg width="173" height="25" viewBox="0 0 173 25" xmlns="http://www.w3.org/2000/svg" xmlns:xlink="http://www.w3.org/1999/xlink"><title>PERCOLATE</title><defs><path id="a" d="M.022.037h172.753V24.65H.022V.037z"/></defs><g fill="none" fill-rule="evenodd"><path d="M36.141 11.077h1.051c2.263 0 4.492 0 4.492-2.934 0-3.03-2.07-3.062-4.492-3.062h-1.05v5.996zM29.897.04h9.558c5.16 0 8.729 2.392 8.729 7.91 0 5.677-3.059 8.165-8.507 8.165h-3.536v7.974h-6.244V.041zM60.785 13.533c-.286-1.563-1.72-2.584-3.281-2.584-1.689 0-3.09.893-3.441 2.584h6.722zm5.384 3.349H53.967c0 2.36 1.243 3.636 3.632 3.636 1.243 0 2.135-.415 2.772-1.5h5.575c-.924 3.86-4.587 5.615-8.315 5.615-5.416 0-9.462-3.062-9.462-8.708 0-5.454 3.728-8.74 9.048-8.74 5.671 0 8.952 3.51 8.952 9.09v.607zM73.807 10.407h.064c1.115-2.01 3.026-2.902 5.288-2.902h1.115v5.581c-.796-.446-1.56-.542-2.453-.542-3.218 0-4.014 2.137-4.014 4.944v6.602h-5.798V7.728h5.798v2.68M94.228 13.054c-.86-.637-1.88-1.148-2.995-1.148-2.23 0-3.982 1.722-3.982 3.987 0 2.36 1.688 4.019 4.078 4.019 1.02 0 2.134-.415 2.899-1.116v4.911c-1.274.638-2.676.926-4.078.926-4.843 0-8.889-3.605-8.889-8.549 0-5.262 4.015-8.898 9.144-8.898 1.338 0 2.676.319 3.823.957v4.911M101.447 15.925c0 2.073 1.37 3.668 3.727 3.668 2.357 0 3.728-1.595 3.728-3.668 0-2.01-1.37-3.7-3.728-3.7s-3.727 1.69-3.727 3.7zm13.571 0c0 5.55-4.587 8.708-9.844 8.708-5.225 0-9.844-3.126-9.844-8.708 0-5.582 4.587-8.74 9.844-8.74s9.844 3.158 9.844 8.74zM116.586.041h5.799v24.05h-5.799V.04zM130.014 15.925c0 2.073 1.37 3.668 3.727 3.668 2.358 0 3.727-1.595 3.727-3.668 0-2.01-1.37-3.7-3.727-3.7-2.358 0-3.727 1.69-3.727 3.7zm13.062 8.165h-5.799v-1.818h-.063c-1.02 1.627-3.027 2.36-4.938 2.36-4.843 0-8.252-4.05-8.252-8.739 0-4.689 3.345-8.707 8.188-8.707 1.88 0 3.855.701 5.065 2.137V7.728h5.799V24.09zM150.857 24.09h-5.798V2.816h5.798v4.912h3.281v4.784h-3.28V24.09" fill="#E15E2A"/><g><mask id="b" fill="#fff"><use xlink:href="#a"/></mask><path d="M167.391 13.533c-.287-1.563-1.72-2.584-3.281-2.584-1.689 0-3.09.893-3.441 2.584h6.722zm5.384 3.349h-12.202c0 2.36 1.243 3.636 3.632 3.636 1.243 0 2.135-.415 2.772-1.5h5.575c-.924 3.86-4.588 5.615-8.315 5.615-5.416 0-9.462-3.062-9.462-8.708 0-5.454 3.727-8.74 9.048-8.74 5.67 0 8.952 3.51 8.952 9.09v.607zM20.079 14.71c0 5.491-4.495 9.94-10.04 9.94C4.496 24.65 0 20.201 0 14.71 0 8.409 10.04.038 10.04.038s10.039 8.37 10.039 14.674" fill="#E15E2A" mask="url(#b)"/></g></g></svg>