<svg width="125" height="27" viewBox="0 0 125 27" xmlns="http://www.w3.org/2000/svg" xmlns:xlink="http://www.w3.org/1999/xlink">
  <defs>
    <path id="a" d="M26.932 10.98H0V.165h26.932z"/>
  </defs>
  <g fill="none" fill-rule="evenodd">
    <path d="M46 12.942l-2.198-.484c-1.1-.24-1.706-.93-1.706-1.936 0-1.28 1.122-2.247 2.61-2.247 2.063 0 2.672 1.535 2.81 2.006.046.16.153.29.296.37.14.08.3.09.45.03l1.16-.41c.29-.1.45-.41.366-.71-.3-1.07-1.396-3.55-5.122-3.55-2.757 0-5.085 2.14-5.085 4.67 0 2.18 1.41 3.79 3.77 4.31l2.1.47c1.26.27 2.02 1.05 2.02 2.09 0 1.323-1.07 2.143-2.8 2.143-2.03 0-3.01-1.35-3.24-2.61-.03-.167-.13-.31-.27-.395-.14-.09-.31-.11-.47-.06l-1.27.41c-.28.09-.45.377-.39.66.39 2.088 2.09 4.32 5.68 4.32 3.02 0 5.3-2 5.3-4.65 0-2.233-1.45-3.84-4-4.41m13.48 2.17c.01.05-.01.08-.03.097-.01.018-.04.045-.09.045H54.7c-.036 0-.07-.02-.095-.05-.012-.02-.032-.05-.022-.09.213-.97 1.046-1.94 2.427-1.94 1.356 0 2.28.72 2.468 1.94zM56.99 11C54.537 11 52 13.046 52 16.47c0 1.652.543 3.06 1.57 4.074.954.94 2.256 1.456 3.668 1.456 2.1 0 3.803-1.095 4.556-2.928.06-.15.058-.318-.01-.463-.065-.15-.184-.26-.335-.31l-1.03-.36c-.29-.1-.6.04-.72.31-.44 1.04-1.28 1.56-2.47 1.56-1.45 0-2.55-.98-2.74-2.42-.01-.05.01-.08.03-.1.01-.02.04-.04.09-.04h6.8c.3 0 .56-.24.57-.54 0-.1.01-.21.01-.31.01-3.33-1.91-5.41-5-5.41zm12.093 8.114c-1.63 0-2.642-1.145-2.642-2.988 0-1.815 1.04-2.988 2.65-2.988 1.56 0 2.6 1.2 2.6 2.988 0 1.787-1.04 2.988-2.6 2.988zm4.34-7.926h-1.227c-.317 0-.576.262-.576.6 0 .072-.056.103-.074.11-.023.01-.07.024-.11-.016-.634-.585-1.522-.882-2.642-.882C66.016 11 64 13.156 64 16.126c0 2.958 2.016 5.105 4.794 5.105 1.026 0 1.956-.34 2.618-.96.044-.04.09-.02.115-.01.017.01.073.04.073.11v.43c0 2.07-.892 3.03-2.806 3.03-1.215 0-2.168-.76-2.426-1.94-.034-.15-.123-.28-.253-.36-.13-.08-.285-.11-.436-.07l-1.21.28c-.31.07-.5.38-.44.7.43 2.14 2.34 3.58 4.75 3.58 1.79 0 3.16-.55 4.06-1.64.74-.9 1.14-2.15 1.14-3.62V11.8c0-.32-.26-.584-.58-.584zM89.113 11c-1.44 0-2.616.53-3.394 1.53-.03.038-.08.06-.12.058-.04-.002-.07-.018-.09-.048-.65-.98-1.78-1.54-3.09-1.54-1.05 0-2.05.356-2.76.977-.06.05-.12.032-.14.023-.03-.012-.07-.04-.07-.11 0-.326-.28-.592-.62-.592H77.6c-.34 0-.612.266-.612.593v9.52c0 .33.274.6.612.6h1.303c.337 0 .61-.26.61-.59V15.6c0-1.412.89-2.36 2.215-2.36 1.736 0 1.995 1.32 1.995 2.104v6.067c0 .33.273.6.61.6h1.327c.34 0 .614-.26.614-.59v-5.84c0-1.37.902-2.33 2.192-2.33 1.735 0 1.994 1.32 1.994 2.11v6.07c0 .33.275.6.61.6h1.306c.337 0 .612-.265.612-.592v-6.28C93 12.28 91.046 11 89.11 11m8.588 4.25c-.036 0-.07-.017-.095-.047-.012-.015-.032-.047-.022-.09.22-.966 1.05-1.942 2.43-1.942 1.36 0 2.28.73 2.47 1.95.01.05-.01.08-.03.09-.01.02-.04.05-.09.05H97.7zM99.99 11C97.537 11 95 13.046 95 16.47c0 1.652.543 3.06 1.57 4.074.954.94 2.256 1.456 3.668 1.456 2.1 0 3.803-1.095 4.556-2.928.06-.15.058-.317-.01-.463-.065-.15-.184-.26-.335-.31l-1.03-.36c-.29-.1-.6.04-.72.31-.44 1.04-1.27 1.56-2.47 1.56-1.45 0-2.55-.98-2.74-2.42-.01-.05.01-.08.02-.1s.04-.04.09-.04h6.8c.3 0 .56-.24.57-.54 0-.1.01-.21.01-.31.01-3.34-1.91-5.42-5-5.42zm12.215 0c-1.043 0-1.957.364-2.643 1.054-.046.046-.097.034-.123.024-.03-.01-.08-.04-.08-.11v-.077c0-.32-.26-.59-.58-.59h-1.21c-.32 0-.58.27-.58.6v9.52c0 .33.26.6.57.6h1.25c.32 0 .58-.26.58-.59v-5.56c0-1.24.55-2.57 2.09-2.57 1.39 0 2.09.79 2.09 2.34v5.79c0 .33.26.6.58.6h1.25c.32 0 .57-.266.57-.593V15.3c0-2.64-1.46-4.277-3.8-4.277m10.59 2.494h1.58c.342 0 .623-.267.623-.593v-1.09c0-.324-.28-.59-.627-.59h-1.58c-.07 0-.127-.052-.127-.12V8.59c0-.325-.28-.59-.628-.59h-1.177c-.347 0-.628.265-.628.59v1.3c0 .608-.246 1.333-1.41 1.333h-.21c-.343 0-.624.265-.624.592v1.09c0 .326.28.592.63.592h1.31c.07 0 .13.053.13.12v5.242c0 1.93 1.25 3.14 3.25 3.14.56 0 .994-.08 1.203-.12.28-.06.48-.3.48-.58v-1.01c0-.17-.076-.33-.21-.44-.13-.11-.31-.17-.484-.15-.144.01-.28.02-.39.02-.91 0-1.25-.32-1.25-1.17v-4.94c0-.07.057-.12.127-.12" fill="#43AF79"/>
    <g transform="translate(0 16)">
      <mask id="b" fill="#fff">
        <use xlink:href="#a"/>
      </mask>
      <path d="M17.747 2.832H1.367C.612 2.832 0 2.235 0 1.5 0 .762.612.165 1.367.165h16.38c.755 0 1.367.597 1.367 1.333 0 .735-.612 1.332-1.367 1.332" fill="#93C8A2" mask="url(#b)"/>
      <path d="M14.235 11c-1.334 0-2.652-.194-3.917-.576-.72-.218-1.125-.964-.9-1.668.222-.703.99-1.097 1.71-.88 1 .304 2.047.457 3.107.457 4.64 0 8.666-2.903 10.023-7.224.22-.71.984-1.11 1.707-.89.722.21 1.128.96.907 1.66-1.71 5.45-6.79 9.11-12.637 9.11" fill="#43AF79" mask="url(#b)"/>
    </g>
    <path d="M27.64 12H11.36c-.752 0-1.36-.672-1.36-1.5S10.608 9 11.36 9h16.28c.752 0 1.36.672 1.36 1.5s-.608 1.5-1.36 1.5" fill="#93C8A2"/>
    <path d="M3.4 11c-.135 0-.273-.02-.41-.06-.74-.22-1.155-.976-.928-1.69C3.812 3.717 9.014 0 15.002 0c1.368 0 2.718.197 4.012.585.74.22 1.152.98.923 1.694-.23.71-1.014 1.11-1.752.89-1.026-.31-2.096-.47-3.182-.47-4.75 0-8.875 2.95-10.264 7.33-.19.58-.74.96-1.34.96" fill="#43AF79"/>
    <path d="M24 4.5c0 .828-.672 1.5-1.5 1.5S21 5.328 21 4.5c0-.83.672-1.5 1.5-1.5s1.5.67 1.5 1.5m-16 18c0 .83-.672 1.5-1.5 1.5S5 23.33 5 22.5c0-.828.672-1.5 1.5-1.5s1.5.672 1.5 1.5" fill="#93C8A2"/>
  </g>
</svg>
