<svg width="142" height="45" viewBox="0 0 142 45" xmlns="http://www.w3.org/2000/svg"><title>Spotify</title><path d="M36.2 20.159c-.441 0-.706-.089-1.148-.355-3.978-2.395-10.21-3.726-16.222-3.726-3.006 0-6.056.31-8.84 1.065-.31.089-.708.221-1.15.221-1.193 0-2.077-.93-2.077-2.128s.751-1.863 1.547-2.13c3.138-.93 6.674-1.374 10.476-1.374 6.497 0 13.304 1.33 18.299 4.258.663.399 1.15.975 1.15 1.996.088 1.286-.885 2.173-2.034 2.173zm-2.74 6.83c-.486 0-.795-.177-1.105-.399-3.58-2.129-8.575-3.548-14.056-3.548-2.784 0-5.216.399-7.205.931-.442.133-.662.266-1.06.266a1.729 1.729 0 0 1-1.724-1.73c0-.93.442-1.596 1.37-1.862 2.475-.666 5.039-1.198 8.708-1.198 5.79 0 11.36 1.464 15.78 4.08.751.444 1.016.976 1.016 1.775 0 .887-.751 1.685-1.724 1.685zm-2.386 5.855c-.354 0-.62-.133-.929-.31-3.182-1.952-7.204-2.972-11.448-2.972-2.387 0-4.73.31-6.984.754-.353.089-.795.222-1.105.222a1.39 1.39 0 0 1-1.414-1.375c0-.932.53-1.375 1.193-1.508 2.74-.621 5.437-.976 8.266-.976 4.818 0 9.15 1.109 12.863 3.326.53.31.884.666.884 1.464.044.799-.62 1.375-1.326 1.375zM22.1.2C9.9.2 0 10.135 0 22.377 0 34.618 9.9 44.554 22.1 44.554c12.2 0 22.101-9.936 22.101-22.177 0-12.242-9.9-22.178-22.1-22.178zm101.884 32.468c.177 0 .265-.089.265-.266V20.647h3.183l4.862 11.754c-.398.842-.84 1.463-1.812 1.463-.796 0-1.46-.354-1.769-.488-.22-.133-.397-.133-.53.134l-1.017 2.217c-.132.266-.265.532 0 .621 1.105.532 1.99.887 3.625.887 3.448 0 4.287-2.395 5.172-4.39l5.79-15.126c.132-.31.132-.532-.221-.532h-3.448c-.22 0-.265.089-.353.355l-3.58 10.246-3.802-10.29c-.089-.222-.177-.31-.31-.31h-5.834v-.4c0-1.242.398-2.04 1.768-2.04.707 0 1.37.177 1.68.266.353.133.574.089.574-.222v-2.839c0-.177-.044-.266-.265-.31-.442-.089-1.635-.4-2.74-.4-3.713 0-4.863 2.307-4.863 5.19v.71h-1.591c-.22 0-.265.088-.265.266v2.927l.265.266h1.591v11.71c0 .177.089.266.265.266h3.36v.089zM114.924 10.4a2.475 2.475 0 0 0-2.476 2.484 2.475 2.475 0 1 0 4.95 0 2.475 2.475 0 0 0-2.474-2.484zm1.635 22.266c.221 0 .31-.089.31-.31V17.541c0-.178-.089-.31-.31-.31h-3.315c-.221 0-.31.132-.31.31v14.814c0 .222.089.31.31.31h3.315zm-9.194-4.968v-7.052h3.669c.22 0 .31-.089.31-.31v-2.795c0-.222-.133-.31-.266-.31h-3.713v-3.726c0-.266-.088-.355-.353-.355h-3.271c-.266 0-.31.133-.31.31v3.77h-1.635c-.133 0-.221.09-.221.222v2.972c0 .177.044.266.265.266h1.591v7.718c0 2.883 1.503 4.568 4.553 4.568 1.414 0 2.254-.31 3.138-.754.133-.089.221-.177.221-.355v-2.661c0-.355-.22-.399-.53-.266-.31.133-.973.444-1.812.444-1.326 0-1.636-.755-1.636-1.686zm-14.233 1.819c-2.829 0-4.331-2.484-4.331-4.613 0-2.617 1.812-4.524 4.243-4.524 2.122 0 4.332 1.685 4.332 4.612 0 2.84-2.034 4.525-4.244 4.525zm7.515-7.762a7.658 7.658 0 0 0-1.68-2.529c-.707-.71-1.591-1.286-2.564-1.73a8.709 8.709 0 0 0-3.226-.62 8.6 8.6 0 0 0-3.271.62 8.928 8.928 0 0 0-2.608 1.73A8.609 8.609 0 0 0 85.53 21.8c-.398.976-.663 2.04-.663 3.15v.088c0 1.109.22 2.173.663 3.149.398.976 1.016 1.818 1.724 2.528.707.71 1.59 1.286 2.607 1.73 1.017.4 2.078.62 3.271.62a8.597 8.597 0 0 0 3.271-.62 8.93 8.93 0 0 0 2.608-1.73c.752-.754 1.238-1.597 1.68-2.572.398-.976.574-2.04.574-3.15v-.044c-.088-1.153-.22-2.218-.618-3.193zM75.85 29.473c-2.431 0-4.067-2.173-4.067-4.524 0-2.35 1.547-4.568 4.067-4.568 2.033 0 4.022 1.596 4.022 4.612 0 2.662-1.768 4.48-4.022 4.48zm.884-12.596c-2.431 0-3.802 1.109-4.686 2.262v-1.641c0-.222-.265-.533-.442-.533H68.38c-.353 0-.265.31-.265.577v19.294c0 .222 0 .488.221.488h3.227c.265 0 .53-.266.53-.532v-5.988a5.986 5.986 0 0 0 4.686 2.173c3.58 0 7.205-2.661 7.205-8.028-.045-5.722-4.023-8.072-7.25-8.072zm-25.77 12.907c-.22-.178-.132-.355 0-.533l1.99-2.35c.176-.178.309-.178.485 0 1.769 1.552 3.404 2.44 5.923 2.44 1.636 0 3.271-.622 3.271-2.263 0-.532-.176-1.02-.486-1.33-2.077-2.085-10.564-1.02-10.564-7.63 0-2.883 2.077-6.076 7.072-6.076 3.05 0 5.348 1.065 7.16 2.484.266.222.222.355.09.532l-1.769 2.484c-.177.222-.265.222-.619 0-1.016-.798-2.784-1.863-4.994-1.863-1.813 0-3.006.843-3.006 2.173 0 3.948 11.05 1.42 11.05 8.96 0 3.637-2.829 6.165-7.293 6.165-3.138 0-5.879-1.109-8.31-3.193z" fill="#2EBD59" fill-rule="evenodd"/></svg>